<svg width="15" height="14" viewBox="0 0 15 14" fill="none" xmlns="http://www.w3.org/2000/svg">
<path d="M14.1329 5.39064C14.0825 5.23626 13.9309 5.13944 13.6786 5.1002L9.45306 4.48581L7.55927 0.655857C7.44134 0.425774 7.30392 0.310791 7.14684 0.310791C6.98412 0.310791 6.84661 0.425774 6.73443 0.655857L4.84043 4.48581L0.61485 5.1002C0.36236 5.13947 0.210818 5.23626 0.160374 5.39064C0.109988 5.54501 0.174466 5.71194 0.353987 5.89152L3.41795 8.87128L2.69406 13.0799C2.66605 13.2652 2.68283 13.4093 2.74462 13.5134C2.8063 13.6173 2.90177 13.6691 3.03081 13.6691C3.12625 13.6691 3.23846 13.6355 3.36751 13.5679L7.14701 11.5813L10.9264 13.5679C11.0555 13.6353 11.1678 13.6691 11.2632 13.6691C11.3924 13.6691 11.4879 13.6173 11.5494 13.5134C11.611 13.4093 11.6278 13.2652 11.5998 13.0799L10.876 8.87128L13.9313 5.89152C14.1165 5.71194 14.1838 5.54501 14.1329 5.39064ZM10.1265 8.09683L9.71408 8.49251L9.8152 9.04806L10.3202 12.0363L7.64356 10.6222L7.14684 10.3611V2.25518L8.48521 4.96561L8.73755 5.47059L9.2933 5.5548L12.29 5.99244L10.1265 8.09683Z" fill="#FFC714"/>
</svg>
