<svg width="14" height="14" viewBox="0 0 14 14" fill="none" xmlns="http://www.w3.org/2000/svg">
<path d="M13.9066 5.46596C13.8163 5.18667 13.5685 4.9883 13.2755 4.96188L9.2944 4.6004L7.72018 0.915779C7.6041 0.645744 7.33975 0.470947 7.04604 0.470947C6.75232 0.470947 6.48797 0.645744 6.3719 0.91641L4.79768 4.6004L0.815976 4.96188C0.52342 4.98893 0.276327 5.18667 0.185508 5.46596C0.0946897 5.74526 0.178563 6.0516 0.399873 6.24471L3.40909 8.88381L2.52174 12.7926C2.45681 13.08 2.56836 13.3771 2.80683 13.5494C2.935 13.642 3.08496 13.6892 3.23619 13.6892C3.36657 13.6892 3.49591 13.654 3.61198 13.5846L7.04604 11.5322L10.4788 13.5846C10.73 13.7357 11.0467 13.7219 11.2846 13.5494C11.5232 13.3765 11.6346 13.0793 11.5697 12.7926L10.6824 8.88381L13.6916 6.24523C13.9129 6.0516 13.9974 5.74578 13.9066 5.46596Z" fill="#FFC714"/>
</svg>
