<svg width="27" height="25" viewBox="0 0 27 25" fill="none" xmlns="http://www.w3.org/2000/svg">
<path fill-rule="evenodd" clip-rule="evenodd" d="M22.0134 3.02148H5.16989C4.0119 3.02148 3.06445 3.92791 3.06445 5.03576V19.1357C3.06445 20.2436 4.0119 21.15 5.16989 21.15H22.0134C23.1714 21.15 24.1188 20.2436 24.1188 19.1357V5.03576C24.1188 3.92791 23.1714 3.02148 22.0134 3.02148ZM22.0134 19.1357H5.16989V5.03576H22.0134V19.1357Z" fill="#1878F3"/>
<path fill-rule="evenodd" clip-rule="evenodd" d="M21.3923 10.4942L19.8975 9.06408L16.5604 12.2567L15.076 10.8266L13.5917 12.2466L16.5604 15.1069L21.3923 10.4942ZM6.22266 7.0498H11.4863V9.06408H6.22266V7.0498ZM6.22266 11.0784H11.4863V13.0926H6.22266V11.0784ZM6.22266 15.1069H11.4863V17.1212H6.22266V15.1069Z" fill="#1878F3"/>
</svg>
