<svg width="20" height="20" viewBox="0 0 20 20" fill="none" xmlns="http://www.w3.org/2000/svg">
<path d="M10.0002 0.0546875C4.50737 0.0546875 0.0546875 4.50737 0.0546875 10.0002C0.0546875 15.493 4.50737 19.9457 10.0002 19.9457C15.493 19.9457 19.9457 15.493 19.9457 10.0002C19.9457 4.50737 15.493 0.0546875 10.0002 0.0546875ZM7.56562 14.1224H5.55165V7.64124H7.56562V14.1224ZM6.5462 6.8456C5.9101 6.8456 5.49882 6.39495 5.49882 5.83758C5.49882 5.26883 5.92254 4.83164 6.5721 4.83164C7.22167 4.83164 7.61949 5.26883 7.63192 5.83758C7.63192 6.39495 7.22167 6.8456 6.5462 6.8456ZM14.9211 14.1224H12.9072V10.5306C12.9072 9.69458 12.615 9.12685 11.8867 9.12685C11.3304 9.12685 10.9999 9.51121 10.8539 9.88106C10.8 10.0126 10.7865 10.1991 10.7865 10.3845V14.1214H8.77151V9.70805C8.77151 8.89894 8.74561 8.22243 8.71867 7.64021H10.4685L10.5607 8.54048H10.6011C10.8663 8.1178 11.5158 7.49413 12.6026 7.49413C13.9276 7.49413 14.9211 8.38198 14.9211 10.2903V14.1224Z" fill="white"/>
</svg>
