<svg width="21" height="21" viewBox="0 0 21 21" fill="none" xmlns="http://www.w3.org/2000/svg">
<circle cx="10.84" cy="10.445" r="9.945" fill="white"/>
<path fill-rule="evenodd" clip-rule="evenodd" d="M14.3822 6.67008C14.1762 6.37375 13.6256 5.95725 12.7337 6.13692C12.2133 6.24133 11.9024 6.49858 11.7047 6.83808C11.4941 7.19975 11.392 7.6915 11.392 8.26375C11.392 8.41846 11.3305 8.56683 11.2211 8.67623C11.1117 8.78562 10.9634 8.84708 10.8087 8.84708C9.4285 8.84708 8.11483 8.437 7.00942 7.32808C6.92596 7.778 6.89309 8.23585 6.91142 8.69308C6.94233 9.32658 7.09342 9.96183 7.45217 10.5061C7.80508 11.041 8.3855 11.531 9.35617 11.839C9.45128 11.8692 9.53706 11.9232 9.60532 11.996C9.67357 12.0688 9.72201 12.1579 9.746 12.2548C9.77 12.3516 9.76875 12.453 9.74237 12.5492C9.71599 12.6455 9.66536 12.7333 9.59533 12.8044C9.28441 13.1233 8.93204 13.399 8.54767 13.624C9.166 13.6882 9.76217 13.6928 10.3152 13.6427C11.4352 13.5412 12.3271 13.2209 12.8847 12.7677C14.059 11.8157 14.6872 10.3958 14.5706 8.017C14.5507 7.62617 14.9282 7.20442 15.1102 6.88417C14.8354 6.9355 14.5601 6.92617 14.3822 6.67008ZM6.66875 5.5005C6.77436 5.48822 6.88132 5.50505 6.97807 5.54916C7.07482 5.59326 7.15767 5.66297 7.21767 5.75075C8.07867 7.01017 9.11233 7.534 10.2597 7.653C10.3158 7.16241 10.4482 6.67767 10.6972 6.25067C11.0624 5.62417 11.6562 5.16333 12.5044 4.993C13.6769 4.75733 14.5694 5.182 15.0868 5.70175L16.1322 5.50633C16.2416 5.48584 16.3545 5.49706 16.4577 5.53868C16.561 5.58029 16.6501 5.65057 16.7147 5.74121C16.7793 5.83185 16.8166 5.93907 16.8222 6.05022C16.8278 6.16137 16.8015 6.27181 16.7464 6.3685L15.7431 8.13133C15.8347 10.6752 15.1277 12.4509 13.6203 13.6742C12.8212 14.3228 11.6767 14.6909 10.4207 14.8047C9.15492 14.919 7.724 14.7807 6.30183 14.3654C6.18032 14.33 6.07363 14.256 5.99787 14.1546C5.92211 14.0532 5.88139 13.9299 5.88185 13.8033C5.88231 13.6767 5.92393 13.5537 6.00043 13.4529C6.07693 13.352 6.18415 13.2788 6.30592 13.2442C7.02108 13.0407 7.56592 12.8651 8.05767 12.5577C7.35825 12.1867 6.84317 11.7013 6.47858 11.1483C5.97225 10.3795 5.78442 9.522 5.74708 8.74908C5.70975 7.97617 5.82117 7.25983 5.939 6.74358C6.00608 6.449 6.08425 6.15383 6.19217 5.8715C6.23023 5.77198 6.29483 5.68478 6.37895 5.61938C6.46307 5.55397 6.56292 5.51286 6.66875 5.5005Z" fill="#1878F3"/>
</svg>
