<svg width="21" height="21" viewBox="0 0 21 21" fill="none" xmlns="http://www.w3.org/2000/svg">
<circle cx="10.84" cy="10.445" r="9.945" fill="#014FB3"/>
<path fill-rule="evenodd" clip-rule="evenodd" d="M14.3822 6.67033C14.1762 6.37399 13.6256 5.95749 12.7337 6.13716C12.2133 6.24158 11.9024 6.49883 11.7047 6.83833C11.4941 7.19999 11.392 7.69174 11.392 8.26399C11.392 8.4187 11.3305 8.56708 11.2211 8.67647C11.1117 8.78587 10.9634 8.84733 10.8087 8.84733C9.4285 8.84733 8.11483 8.43724 7.00942 7.32833C6.92596 7.77825 6.89309 8.23609 6.91142 8.69333C6.94233 9.32683 7.09342 9.96208 7.45217 10.5063C7.80508 11.0412 8.3855 11.5312 9.35617 11.8392C9.45128 11.8694 9.53706 11.9235 9.60532 11.9963C9.67357 12.0691 9.72201 12.1581 9.746 12.255C9.77 12.3519 9.76875 12.4532 9.74237 12.5495C9.71599 12.6457 9.66536 12.7336 9.59533 12.8047C9.28441 13.1236 8.93204 13.3992 8.54767 13.6242C9.166 13.6884 9.76217 13.6931 10.3152 13.6429C11.4352 13.5414 12.3271 13.2212 12.8847 12.7679C14.059 11.8159 14.6872 10.3961 14.5706 8.01724C14.5507 7.62641 14.9282 7.20466 15.1102 6.88441C14.8354 6.93574 14.5601 6.92641 14.3822 6.67033ZM6.66875 5.50074C6.77436 5.48847 6.88132 5.50529 6.97807 5.5494C7.07482 5.59351 7.15767 5.66321 7.21767 5.75099C8.07867 7.01041 9.11233 7.53424 10.2597 7.65324C10.3158 7.16266 10.4482 6.67791 10.6972 6.25091C11.0624 5.62441 11.6562 5.16358 12.5044 4.99324C13.6769 4.75758 14.5694 5.18224 15.0868 5.70199L16.1322 5.50658C16.2416 5.48608 16.3545 5.4973 16.4577 5.53892C16.561 5.58054 16.6501 5.65081 16.7147 5.74145C16.7793 5.83209 16.8166 5.93931 16.8222 6.05046C16.8278 6.16161 16.8015 6.27205 16.7464 6.36874L15.7431 8.13158C15.8347 10.6755 15.1277 12.4512 13.6203 13.6744C12.8212 14.3231 11.6767 14.6912 10.4207 14.8049C9.15492 14.9192 7.724 14.781 6.30183 14.3657C6.18032 14.3302 6.07363 14.2562 5.99787 14.1548C5.92211 14.0534 5.88139 13.9301 5.88185 13.8035C5.88231 13.677 5.92393 13.554 6.00043 13.4531C6.07693 13.3523 6.18415 13.2791 6.30592 13.2445C7.02108 13.0409 7.56592 12.8653 8.05767 12.5579C7.35825 12.1869 6.84317 11.7016 6.47858 11.1486C5.97225 10.3797 5.78442 9.52224 5.74708 8.74933C5.70975 7.97641 5.82117 7.26008 5.939 6.74383C6.00608 6.44924 6.08425 6.15408 6.19217 5.87174C6.23023 5.77222 6.29483 5.68502 6.37895 5.61962C6.46307 5.55422 6.56292 5.5131 6.66875 5.50074Z" fill="white"/>
</svg>
