<svg width="59" height="61" viewBox="0 0 59 61" fill="none" xmlns="http://www.w3.org/2000/svg">
<rect width="59" height="60.165" rx="12" fill="#E4EDFC"/>
<path fill-rule="evenodd" clip-rule="evenodd" d="M41.3198 16.5776H16.4756C14.7676 16.5776 13.3701 17.941 13.3701 19.6073V40.8154C13.3701 42.4818 14.7676 43.8452 16.4756 43.8452H41.3198C43.0279 43.8452 44.4253 42.4818 44.4253 40.8154V19.6073C44.4253 17.941 43.0279 16.5776 41.3198 16.5776ZM41.3198 40.8154H16.4756V19.6073H41.3198V40.8154Z" fill="#1878F3"/>
<path fill-rule="evenodd" clip-rule="evenodd" d="M40.4036 27.8179L38.1987 25.6668L33.2764 30.4689L31.087 28.3178L28.8976 30.4538L33.2764 34.756L40.4036 27.8179ZM18.0283 22.6371H25.7921V25.6668H18.0283V22.6371ZM18.0283 28.6965H25.7921V31.7263H18.0283V28.6965ZM18.0283 34.756H25.7921V37.7857H18.0283V34.756Z" fill="#1878F3"/>
</svg>
